<svg id="Capa_1" data-name="Capa 1" xmlns="http://www.w3.org/2000/svg" viewBox="-2 -2 66 66">
  <defs>
    <style>
      .cls-1 {
        stroke: white;
        stroke-miterlimit: 2;
        stroke-width: 3px;
      }
    </style>
  </defs>
  <title>world</title>
  <path class="cls-1"
    d="M30.85.5A30.38,30.38,0,1,0,61.26,30.85h0A30.38,30.38,0,0,0,30.85.5ZM2.59,40.13l9.4,0a38.5,38.5,0,0,0,2.73,8.31H6.93A29.7,29.7,0,0,1,2.59,40.13Zm56.58-18.5-9.4,0A38.49,38.49,0,0,0,47,13.34l7.85,0a29.78,29.78,0,0,1,4.28,8.32Zm-10,0H41.41a62.25,62.25,0,0,0-1.53-8.31h6.54a37.89,37.89,0,0,1,2.75,8.31Zm-18,0V13.36h8.14a61.83,61.83,0,0,1,1.49,8.31Zm9.72.64a81.41,81.41,0,0,1,.46,8.31H31.21V22.31Zm-9.72-9.5V4.49l4.45,0a28.41,28.41,0,0,1,3.5,8.3Zm0-8.89V1.19a6,6,0,0,1,4.07,2.7Zm-.6,0H26.52a6.09,6.09,0,0,1,4.06-2.74Zm0,.6v8.31h-8A28.41,28.41,0,0,1,26.09,4.5Zm0,8.89v8.31H21a61.83,61.83,0,0,1,1.53-8.33Zm0,8.89,0,8.32H20.45a81.41,81.41,0,0,1,.43-8.31ZM19.84,30.62H11.65a44.67,44.67,0,0,1,.8-8.32h7.78a81.55,81.55,0,0,0-.39,8.27Zm0,.6a81.56,81.56,0,0,0,.46,8.32H12.52a44.67,44.67,0,0,1-.84-8.31Zm.6,0H30.58l0,8.29H20.91a81.41,81.41,0,0,1-.47-8.3Zm10.16,8.9v8.27H22.45A61.65,61.65,0,0,1,21,40.08Zm0,8.89,0,8.32-4.45,0a28.41,28.41,0,0,1-3.5-8.3Zm0,8.89v2.73a6,6,0,0,1-4.07-2.7Zm.6,0h4.06a6,6,0,0,1-4.06,2.72Zm0-.6V49h8a28.41,28.41,0,0,1-3.47,8.34Zm0-8.89V40.09h9.66a61.65,61.65,0,0,1-1.53,8.33Zm0-8.89V31.2H41.32a81.41,81.41,0,0,1-.43,8.31Zm10.74-8.33,8.2,0a44.67,44.67,0,0,1-.8,8.32H41.55a81.55,81.55,0,0,0,.39-8.3Zm0-.6a81.55,81.55,0,0,0-.46-8.32h7.78a44.67,44.67,0,0,1,.84,8.31Zm-2.2-17.81a30.38,30.38,0,0,0-3.44-8.33h3.39a24.66,24.66,0,0,1,6.43,8.31ZM35.88,3.86a9.79,9.79,0,0,0-2.36-2.43,14.6,14.6,0,0,1,5.42,2.44Zm-10,0h-3a14.6,14.6,0,0,1,5.41-2.45,9.79,9.79,0,0,0-2.41,2.42Zm-.41.6A30.38,30.38,0,0,0,22,12.78H15.61A24.66,24.66,0,0,1,22,4.47Zm-3.6,8.92a62.25,62.25,0,0,0-1.47,8.32H12.58a37.89,37.89,0,0,1,2.74-8.32ZM12,21.71l-9.4,0a29.78,29.78,0,0,1,4.25-8.31h7.85A38.5,38.5,0,0,0,12,21.69Zm-.12.6a45.3,45.3,0,0,0-.79,8.29l-10,0a29.64,29.64,0,0,1,1.26-8.31ZM11,31.17a45.3,45.3,0,0,0,.82,8.31H2.38a29.64,29.64,0,0,1-1.26-8.27Zm1.56,8.91h7.77a62.25,62.25,0,0,0,1.53,8.35H15.34a37.77,37.77,0,0,1-2.75-8.31ZM22,49a30.38,30.38,0,0,0,3.44,8.33H22.08A24.66,24.66,0,0,1,15.65,49Zm3.85,8.91a9.79,9.79,0,0,0,2.38,2.44,14.6,14.6,0,0,1-5.42-2.44Zm10,0h3a14.6,14.6,0,0,1-5.41,2.45,9.79,9.79,0,0,0,2.43-2.4Zm.41-.6A30.38,30.38,0,0,0,39.75,49h6.39a24.66,24.66,0,0,1-6.41,8.32Zm3.6-8.92A62.25,62.25,0,0,0,41.4,40h7.77a37.77,37.77,0,0,1-2.74,8.32ZM49.79,40l9.43.07A29.7,29.7,0,0,1,55,48.42H47.19a38.5,38.5,0,0,0,2.62-8.34Zm.12-.6a45.3,45.3,0,0,0,.8-8.32h9.93a29.64,29.64,0,0,1-1.26,8.31Zm.8-8.92a45.3,45.3,0,0,0-.82-8.31l9.49,0a29.64,29.64,0,0,1,1.26,8.27Zm3.73-17.83-7.58.07a26.08,26.08,0,0,0-6.22-8.29h3.92a30,30,0,0,1,9.9,8.25ZM43.29,3.82H39.87A16.7,16.7,0,0,0,36,1.57,29.73,29.73,0,0,1,43.29,3.82Zm-21.46,0H18.41a29.73,29.73,0,0,1,7.22-2.28,16.7,16.7,0,0,0-3.8,2.27Zm-4.64.61h3.92a26.08,26.08,0,0,0-6.18,8.32H7.27A30,30,0,0,1,17.19,4.46ZM7.31,49H15a26.08,26.08,0,0,0,6.22,8.29H17.3A30,30,0,0,1,7.31,49Zm11.17,8.9H21.9a16.7,16.7,0,0,0,3.82,2.26A29.73,29.73,0,0,1,18.48,57.94Zm21.46,0h3.42a29.73,29.73,0,0,1-7.22,2.28,16.7,16.7,0,0,0,3.8-2.27Zm4.64-.61H40.68A26.08,26.08,0,0,0,46.85,49h7.66a30,30,0,0,1-9.93,8.32Z"
    transform="translate(0 0)" />
</svg>