<svg id="Capa_1" data-name="Capa 1" xmlns="http://www.w3.org/2000/svg" viewBox="-3 -3 88 88">
  <defs>
    <style>
      .cls-1,
      .cls-2 {
        fill: none;
        stroke: white;
        stroke-miterlimit: 10;
        stroke-width: 4px;
      }

      .cls-2 {
        stroke-linecap: round;
      }
    </style>
  </defs>
  <title>satelliteV3</title>
  <path class="cls-1"
    d="M46.61,23.65a4.92,4.92,0,0,1,3.51,1.48l9.48,9.44a5,5,0,0,1,0,7.12L41.1,60.18a5,5,0,0,1-7.1,0h0l-9.45-9.46a5,5,0,0,1,0-7.1h0L43,25.12A5.07,5.07,0,0,1,46.61,23.65Z"
    transform="translate(-0.5 -1.06)" />
  <path class="cls-1"
    d="M15.72,54A15,15,0,0,1,26.34,79.57a1.88,1.88,0,0,1-1.34.55h0a1.88,1.88,0,0,1-1.33-.55L5.15,61a1.88,1.88,0,0,1,0-2.65A14.91,14.91,0,0,1,15.72,54Z"
    transform="translate(-0.5 -1.06)" />
  <line class="cls-2" x1="13.92" y1="69.25" x2="10.26" y2="72.91" />
  <line class="cls-2" x1="28.77" y1="54.4" x2="25.84" y2="57.33" />
  <path class="cls-1"
    d="M61.13,48.79a1.88,1.88,0,0,1,1.33.55L82.12,69a1.88,1.88,0,0,1,0,2.65l-11,11.06a1.88,1.88,0,0,1-2.66,0h0L48.77,63.06a1.88,1.88,0,0,1,0-2.66h0l11-11.06A1.88,1.88,0,0,1,61.13,48.79Z"
    transform="translate(-0.5 -1.06)" />
  <line class="cls-2" x1="76.16" y1="76.1" x2="49.86" y2="49.81" />
  <line class="cls-2" x1="71.8" y1="58.12" x2="58.81" y2="71.11" />
  <path class="cls-1"
    d="M23,36.49a1.88,1.88,0,0,1-1.33-.55L2,16.27a1.88,1.88,0,0,1,0-2.65L13,2.56a1.88,1.88,0,0,1,2.66,0h0L35.34,22.22a1.88,1.88,0,0,1,0,2.66h0l-11,11.06A1.88,1.88,0,0,1,23,36.49Z"
    transform="translate(-0.5 -1.06)" />
  <line class="cls-2" x1="6.97" y1="7.06" x2="33.26" y2="33.35" />
  <line class="cls-2" x1="11.32" y1="25.04" x2="24.31" y2="12.05" />
</svg>