<svg id="Capa_1" data-name="Capa 1" xmlns="http://www.w3.org/2000/svg" viewBox="10 -2 49 57">
  <defs>
    <style>
      .cls-1,
      .cls-2 {
        fill: none;
        stroke: white;
        stroke-miterlimit: 10;
        stroke-width: 3px;
      }

      .cls-2 {
        stroke-linecap: round;
      }
    </style>
  </defs>
  <title>buoy</title>
  <path class="cls-1"
    d="M179.62,52.78h7.81A1.19,1.19,0,0,1,188.62,54v10.8l-1.67.8a3,3,0,0,1-2.58,0l-2.94-1.4a1.18,1.18,0,0,0-1,0l-2.94,1.4a3,3,0,0,1-2.58,0l-2.94-1.4a1.18,1.18,0,0,0-1,0L168,65.56a3,3,0,0,1-2.58,0l-2.94-1.4a1.18,1.18,0,0,0-1,0l-2.94,1.4a3,3,0,0,1-2.58,0L153,64.16a1.19,1.19,0,0,0-1,0l-2.87,1.43a3,3,0,0,1-2.68,0l-1.62-.81V54A1.19,1.19,0,0,1,146,52.78h33.66Z"
    transform="translate(-132.07 -14.28)" />
  <path class="cls-1"
    d="M169.48,22.76l.13,6.71,3-.07h3.55a1.19,1.19,0,0,1,1.18,1.07l.32,3.34a1.24,1.24,0,0,1,0,.33s0,.07,0,.1l1.9,18.54H153.77L156,30.47a1.19,1.19,0,0,1,1.18-1.07h6.69V22.76"
    transform="translate(-132.07 -14.28)" />
  <path class="cls-1" d="M166.73,24.11a4.44,4.44,0,1,1,4.44-4.44,4.44,4.44,0,0,1-4.44,4.44"
    transform="translate(-132.07 -14.28)" />
</svg>